<svg width="345" height="312" fill="none" xmlns="http://www.w3.org/2000/svg"><path fill-rule="evenodd" clip-rule="evenodd" d="M65.6 108.4a2 2 0 0 1-.4-3.1l64-66.5v-.1l30.4-31.4c9.2-9.5 23.7-9.8 32.3-.6l67.4 71.8a2 2 0 0 0 2.7.2l64.5-49.1c7.4-5.7 13.9-3.1 16.6 5.4l1.9 119c0 7.6-1.9 16-4.9 23.4a2 2 0 0 1-3 .8l-161.4-123-2.6 2.4a10389.4 10389.4 0 0 1-69.1 66 9.7 9.7 0 0 1-6 2 10 10 0 0 1-3.4-.6 1699 1699 0 0 1-29-16.6zM165 308.6L17.8 196.4C7.8 188.8-.1 169.7 0 153.6L.5 45c0-16 8.2-23 18-15.4l56.8 43.3c1 .7 1.1 2 .3 3l-32 33a2 2 0 0 0 .5 3.2l6.7 4 .8.5A4290.2 4290.2 0 0 0 84.8 136c3.4 2 5.8 3.2 7.2 3.8a17.3 17.3 0 0 0 16.8-2.6c1.7-1.3 6.3-5.7 13-12.1A11026 11026 0 0 0 175.2 74a2 2 0 0 1 2.6-.2L330 190a2 2 0 0 1 0 3.1l-12.2 10-14.8 11.7a2 2 0 0 1-2.5 0L170.7 115c-2.5-1.9-5.6-.4-7 3.3-1.3 3.8-.3 8.4 2.3 10.3l122.5 94a2 2 0 0 1 0 3.2L260 247.6a2 2 0 0 1-2.4 0l-127.9-98c-2.5-2-5.6-.5-7 3.3-1.3 3.7-.3 8.3 2.3 10.3l120.4 92.4a2 2 0 0 1 0 3.1l-29 22.1a2 2 0 0 1-2.4 0l-126.5-97c-2.5-2-5.7-.4-7 3.3-1.3 3.8-.3 8.4 2.2 10.3L202 288.8a2 2 0 0 1 0 3.1L180 308.6a15.7 15.7 0 0 1-5.3 2.7h-.2c-.4.2-.9.3-1.3.3h-.5-.2-.7l-1.3-.2h-.1-.1l-.7-.3c-1.4-.5-3-1.3-4.6-2.5z" fill="#fff"/></svg>