<?xml version="1.0" standalone="no"?>
<!DOCTYPE svg PUBLIC "-//W3C//DTD SVG 20010904//EN"
 "http://www.w3.org/TR/2001/REC-SVG-20010904/DTD/svg10.dtd">
<svg version="1.0" xmlns="http://www.w3.org/2000/svg"
 width="512.000000pt" height="512.000000pt" viewBox="0 0 512.000000 512.000000"
 preserveAspectRatio="xMidYMid meet">
<metadata>
Created by potrace 1.11, written by Peter Selinger 2001-2013
</metadata>
<g transform="translate(0.000000,512.000000) scale(0.100000,-0.100000)"
fill="#000000" stroke="none">
<path d="M222 4540 c-44 -10 -70 -35 -82 -79 -13 -46 -13 -3899 0 -3955 5 -21
18 -48 30 -60 20 -20 30 -21 408 -24 429 -3 451 -1 479 51 17 30 18 86 20 737
1 388 2 717 3 733 0 15 9 36 20 47 19 19 33 20 504 20 461 0 485 -1 507 -19
l24 -19 5 -739 c5 -684 6 -740 23 -764 37 -54 29 -54 607 -57 651 -3 1014 8
1152 38 590 124 1038 591 1140 1185 26 151 21 396 -11 543 -83 388 -295 691
-650 927 -72 48 -137 97 -142 108 -8 14 -6 48 6 126 97 590 -331 1139 -936
1201 -146 15 -1074 12 -1119 -3 -24 -8 -41 -23 -52 -47 -17 -32 -18 -89 -18
-750 0 -393 -3 -725 -6 -738 -13 -48 -26 -49 -537 -48 l-479 1 -19 24 c-10 13
-19 33 -20 45 0 11 -1 336 -2 721 -2 765 0 734 -60 779 -28 20 -40 21 -395 23
-202 1 -382 -2 -400 -7z m3078 -952 c64 -33 90 -76 90 -151 0 -114 -62 -166
-197 -167 -61 0 -74 3 -83 19 -5 11 -10 79 -10 152 0 162 4 169 94 169 44 0
75 -6 106 -22z m500 -1240 c214 -39 351 -244 338 -504 -5 -84 -9 -102 -46
-179 -50 -105 -136 -198 -222 -244 -97 -52 -162 -61 -462 -61 l-267 0 -20 26
c-21 26 -21 37 -21 476 l0 449 24 24 24 23 298 0 c165 0 324 -4 354 -10z"/>
</g>
</svg>
